<svg xmlns="http://www.w3.org/2000/svg" viewBox="0 0 100 100"><line x1="-4.3" y1="0" x2="4.3" y2="0" transform="translate(20.2 51.6) rotate(25.5)" stroke="currentColor" stroke-width="4.6" stroke-linecap="round"/><line x1="-4.3" y1="0" x2="4.3" y2="0" transform="translate(35.0 56.0) rotate(2.0)" stroke="currentColor" stroke-width="4.6" stroke-linecap="round"/><line x1="-4.3" y1="0" x2="4.3" y2="0" transform="translate(50.0 52.3) rotate(-24.6)" stroke="currentColor" stroke-width="4.6" stroke-linecap="round"/><line x1="-4.3" y1="0" x2="4.3" y2="0" transform="translate(64.3 45.8) rotate(-19.5)" stroke="currentColor" stroke-width="4.6" stroke-linecap="round"/><line x1="-4.3" y1="0" x2="4.3" y2="0" transform="translate(79.6 44.7) rotate(12.9)" stroke="currentColor" stroke-width="4.6" stroke-linecap="round"/><rect x="-8.5" y="-5.3" width="17.0" height="10.5" rx="5.3" transform="translate(13.1 48.2) rotate(25.3)" fill="none" stroke="currentColor" stroke-width="4"/><rect x="-8.5" y="-5.3" width="17.0" height="10.5" rx="5.3" transform="translate(27.4 54.6) rotate(17.7)" fill="none" stroke="currentColor" stroke-width="4"/><rect x="-8.5" y="-5.3" width="17.0" height="10.5" rx="5.3" transform="translate(42.8 55.0) rotate(-15.1)" fill="none" stroke="currentColor" stroke-width="4"/><rect x="-8.5" y="-5.3" width="17.0" height="10.5" rx="5.3" transform="translate(57.2 48.8) rotate(-25.9)" fill="none" stroke="currentColor" stroke-width="4"/><rect x="-8.5" y="-5.3" width="17.0" height="10.5" rx="5.3" transform="translate(71.8 44.1) rotate(-4.6)" fill="none" stroke="currentColor" stroke-width="4"/><rect x="-8.5" y="-5.3" width="17.0" height="10.5" rx="5.3" transform="translate(87.0 47.2) rotate(23.8)" fill="none" stroke="currentColor" stroke-width="4"/></svg>
