<svg xmlns="http://www.w3.org/2000/svg" viewBox="0 0 100 100"><path fill="currentColor" fill-rule="evenodd" d="M44.8 8.8L59.8 9.5L74.8 16.3L85.3 27.5L91.3 42.5L91.3 58.3L89.0 65.8L83.8 74.8L73.3 84.5L58.3 90.5L41.0 90.5L25.3 83.8L14.0 71.8L11.0 65.8L8.0 53.8L8.8 41.0L11.0 34.3L18.5 22.3L29.0 14.0L44.8 8.8ZM46.3 15.5L32.0 20.0L23.0 27.5L18.5 34.3L15.5 42.5L14.8 53.8L20.0 68.8L28.3 77.8L40.3 83.8L55.3 84.5L69.5 79.3L78.5 71.0L83.8 61.3L85.3 46.3L80.8 32.8L72.5 23.0L59.0 16.3L46.3 15.5ZM50.8 18.5L60.5 20.0L70.3 25.3L77.0 32.8L81.5 43.3L82.3 48.5L80.8 59.8L76.3 68.8L67.3 77.0L54.5 81.5L50.0 81.5L50.8 18.5Z"/></svg>
